<mxfile host="app.diagrams.net" agent="Mozilla/5.0 (Windows NT 10.0; Win64; x64) AppleWebKit/537.36 (KHTML, like Gecko) Chrome/128.0.0.0 Safari/537.36" version="24.7.7">
  <diagram name="Page-1" id="jFCorRqVwIcgnSAANbfP">
    <mxGraphModel dx="2910" dy="2257" grid="1" gridSize="10" guides="1" tooltips="1" connect="1" arrows="1" fold="1" page="1" pageScale="1" pageWidth="850" pageHeight="1100" math="0" shadow="0">
      <root>
        <mxCell id="0" />
        <mxCell id="1" parent="0" />
        <mxCell id="SJhPn0XpCKg0EyMPji_I-2" value="Doctor" style="rounded=0;whiteSpace=wrap;html=1;shadow=0;fontStyle=1;fontSize=15;" parent="1" vertex="1">
          <mxGeometry x="-247" y="844" width="120" height="60" as="geometry" />
        </mxCell>
        <mxCell id="VN0yVY5uS7CeXmlR8bmi-15" style="edgeStyle=orthogonalEdgeStyle;rounded=0;orthogonalLoop=1;jettySize=auto;html=1;exitX=0.25;exitY=0;exitDx=0;exitDy=0;entryX=1;entryY=0.5;entryDx=0;entryDy=0;endArrow=none;endFill=0;" parent="1" source="SJhPn0XpCKg0EyMPji_I-13" target="VN0yVY5uS7CeXmlR8bmi-12" edge="1">
          <mxGeometry relative="1" as="geometry" />
        </mxCell>
        <mxCell id="VN0yVY5uS7CeXmlR8bmi-19" value="1" style="edgeLabel;html=1;align=center;verticalAlign=middle;resizable=0;points=[];fontSize=17;fontStyle=1" parent="VN0yVY5uS7CeXmlR8bmi-15" vertex="1" connectable="0">
          <mxGeometry x="-0.8221" y="1" relative="1" as="geometry">
            <mxPoint y="4" as="offset" />
          </mxGeometry>
        </mxCell>
        <mxCell id="VN0yVY5uS7CeXmlR8bmi-16" style="edgeStyle=orthogonalEdgeStyle;rounded=0;orthogonalLoop=1;jettySize=auto;html=1;exitX=0.5;exitY=0;exitDx=0;exitDy=0;entryX=1;entryY=0.5;entryDx=0;entryDy=0;endArrow=none;endFill=0;" parent="1" source="SJhPn0XpCKg0EyMPji_I-13" target="eJS6RQ6NcchhUuec16Ap-17" edge="1">
          <mxGeometry relative="1" as="geometry" />
        </mxCell>
        <mxCell id="VN0yVY5uS7CeXmlR8bmi-21" value="1" style="edgeLabel;html=1;align=center;verticalAlign=middle;resizable=0;points=[];fontSize=17;fontStyle=1" parent="VN0yVY5uS7CeXmlR8bmi-16" vertex="1" connectable="0">
          <mxGeometry x="-0.8924" y="-1" relative="1" as="geometry">
            <mxPoint x="-2" y="1" as="offset" />
          </mxGeometry>
        </mxCell>
        <mxCell id="eJS6RQ6NcchhUuec16Ap-45" style="edgeStyle=orthogonalEdgeStyle;rounded=0;orthogonalLoop=1;jettySize=auto;html=1;exitX=0.75;exitY=0;exitDx=0;exitDy=0;entryX=0;entryY=0.5;entryDx=0;entryDy=0;endArrow=none;endFill=0;" edge="1" parent="1" source="SJhPn0XpCKg0EyMPji_I-13" target="eJS6RQ6NcchhUuec16Ap-43">
          <mxGeometry relative="1" as="geometry" />
        </mxCell>
        <mxCell id="eJS6RQ6NcchhUuec16Ap-46" style="edgeStyle=orthogonalEdgeStyle;rounded=0;orthogonalLoop=1;jettySize=auto;html=1;exitX=1;exitY=0.25;exitDx=0;exitDy=0;entryX=0;entryY=0.5;entryDx=0;entryDy=0;" edge="1" parent="1" source="SJhPn0XpCKg0EyMPji_I-13" target="eJS6RQ6NcchhUuec16Ap-44">
          <mxGeometry relative="1" as="geometry" />
        </mxCell>
        <mxCell id="eJS6RQ6NcchhUuec16Ap-48" style="edgeStyle=orthogonalEdgeStyle;rounded=0;orthogonalLoop=1;jettySize=auto;html=1;exitX=1;exitY=0.5;exitDx=0;exitDy=0;" edge="1" parent="1" source="SJhPn0XpCKg0EyMPji_I-13" target="eJS6RQ6NcchhUuec16Ap-47">
          <mxGeometry relative="1" as="geometry" />
        </mxCell>
        <mxCell id="eJS6RQ6NcchhUuec16Ap-50" style="edgeStyle=orthogonalEdgeStyle;rounded=0;orthogonalLoop=1;jettySize=auto;html=1;exitX=1;exitY=0.75;exitDx=0;exitDy=0;entryX=0;entryY=0.5;entryDx=0;entryDy=0;" edge="1" parent="1" source="SJhPn0XpCKg0EyMPji_I-13" target="eJS6RQ6NcchhUuec16Ap-49">
          <mxGeometry relative="1" as="geometry" />
        </mxCell>
        <mxCell id="eJS6RQ6NcchhUuec16Ap-52" style="edgeStyle=orthogonalEdgeStyle;rounded=0;orthogonalLoop=1;jettySize=auto;html=1;exitX=0.75;exitY=1;exitDx=0;exitDy=0;entryX=0;entryY=0.5;entryDx=0;entryDy=0;" edge="1" parent="1" source="SJhPn0XpCKg0EyMPji_I-13" target="eJS6RQ6NcchhUuec16Ap-51">
          <mxGeometry relative="1" as="geometry" />
        </mxCell>
        <mxCell id="SJhPn0XpCKg0EyMPji_I-13" value="Patient" style="rounded=0;whiteSpace=wrap;html=1;shadow=0;fontStyle=1;fontSize=15;" parent="1" vertex="1">
          <mxGeometry x="1023" y="844" width="120" height="60" as="geometry" />
        </mxCell>
        <mxCell id="SJhPn0XpCKg0EyMPji_I-66" style="edgeStyle=orthogonalEdgeStyle;rounded=0;orthogonalLoop=1;jettySize=auto;html=1;exitX=0.5;exitY=1;exitDx=0;exitDy=0;entryX=1;entryY=0.5;entryDx=0;entryDy=0;endArrow=none;endFill=0;" parent="1" source="eJS6RQ6NcchhUuec16Ap-15" target="SJhPn0XpCKg0EyMPji_I-64" edge="1">
          <mxGeometry relative="1" as="geometry" />
        </mxCell>
        <mxCell id="eJS6RQ6NcchhUuec16Ap-4" style="edgeStyle=orthogonalEdgeStyle;rounded=0;orthogonalLoop=1;jettySize=auto;html=1;entryX=0.5;entryY=1;entryDx=0;entryDy=0;endArrow=none;endFill=0;exitX=0.75;exitY=0;exitDx=0;exitDy=0;" edge="1" parent="1" source="eJS6RQ6NcchhUuec16Ap-15" target="eJS6RQ6NcchhUuec16Ap-2">
          <mxGeometry relative="1" as="geometry">
            <mxPoint x="492" y="1284" as="sourcePoint" />
          </mxGeometry>
        </mxCell>
        <mxCell id="SJhPn0XpCKg0EyMPji_I-36" style="edgeStyle=orthogonalEdgeStyle;rounded=0;orthogonalLoop=1;jettySize=auto;html=1;exitX=0.5;exitY=0;exitDx=0;exitDy=0;fontSize=17;fontStyle=1;endArrow=none;endFill=0;" parent="1" source="eJS6RQ6NcchhUuec16Ap-16" target="SJhPn0XpCKg0EyMPji_I-13" edge="1">
          <mxGeometry relative="1" as="geometry">
            <mxPoint x="1082.9999999999995" y="1256" as="sourcePoint" />
          </mxGeometry>
        </mxCell>
        <mxCell id="SJhPn0XpCKg0EyMPji_I-39" value="1" style="edgeLabel;html=1;align=center;verticalAlign=middle;resizable=0;points=[];fontSize=17;fontStyle=1" parent="SJhPn0XpCKg0EyMPji_I-36" vertex="1" connectable="0">
          <mxGeometry x="0.7602" y="3" relative="1" as="geometry">
            <mxPoint x="2" y="13" as="offset" />
          </mxGeometry>
        </mxCell>
        <mxCell id="SJhPn0XpCKg0EyMPji_I-37" style="edgeStyle=orthogonalEdgeStyle;rounded=0;orthogonalLoop=1;jettySize=auto;html=1;exitX=0;exitY=0.5;exitDx=0;exitDy=0;fontSize=17;fontStyle=1;endArrow=none;endFill=0;shape=link;entryX=1;entryY=0.5;entryDx=0;entryDy=0;" parent="1" source="eJS6RQ6NcchhUuec16Ap-16" target="eJS6RQ6NcchhUuec16Ap-15" edge="1">
          <mxGeometry relative="1" as="geometry">
            <mxPoint x="1032.9999999999995" y="1306" as="sourcePoint" />
          </mxGeometry>
        </mxCell>
        <mxCell id="SJhPn0XpCKg0EyMPji_I-38" value="N" style="edgeLabel;html=1;align=center;verticalAlign=middle;resizable=0;points=[];fontSize=17;fontStyle=1" parent="SJhPn0XpCKg0EyMPji_I-37" vertex="1" connectable="0">
          <mxGeometry x="0.9245" y="3" relative="1" as="geometry">
            <mxPoint x="25" y="-3" as="offset" />
          </mxGeometry>
        </mxCell>
        <mxCell id="eJS6RQ6NcchhUuec16Ap-29" style="edgeStyle=orthogonalEdgeStyle;rounded=0;orthogonalLoop=1;jettySize=auto;html=1;exitX=0.5;exitY=0;exitDx=0;exitDy=0;entryX=0.5;entryY=1;entryDx=0;entryDy=0;endArrow=none;endFill=0;" edge="1" parent="1" source="SJhPn0XpCKg0EyMPji_I-42" target="eJS6RQ6NcchhUuec16Ap-28">
          <mxGeometry relative="1" as="geometry" />
        </mxCell>
        <mxCell id="eJS6RQ6NcchhUuec16Ap-40" style="edgeStyle=orthogonalEdgeStyle;rounded=0;orthogonalLoop=1;jettySize=auto;html=1;exitX=0.75;exitY=1;exitDx=0;exitDy=0;entryX=0;entryY=0.5;entryDx=0;entryDy=0;" edge="1" parent="1" source="SJhPn0XpCKg0EyMPji_I-42" target="eJS6RQ6NcchhUuec16Ap-39">
          <mxGeometry relative="1" as="geometry" />
        </mxCell>
        <mxCell id="SJhPn0XpCKg0EyMPji_I-42" value="Room" style="rounded=0;whiteSpace=wrap;html=1;shadow=0;fontStyle=1;fontSize=15;" parent="1" vertex="1">
          <mxGeometry x="365" y="402" width="120" height="60" as="geometry" />
        </mxCell>
        <mxCell id="SJhPn0XpCKg0EyMPji_I-57" style="edgeStyle=orthogonalEdgeStyle;rounded=0;orthogonalLoop=1;jettySize=auto;html=1;exitX=0.5;exitY=0;exitDx=0;exitDy=0;entryX=0.5;entryY=1;entryDx=0;entryDy=0;endArrow=none;endFill=0;" parent="1" source="eJS6RQ6NcchhUuec16Ap-18" target="SJhPn0XpCKg0EyMPji_I-2" edge="1">
          <mxGeometry relative="1" as="geometry">
            <mxPoint x="-187" y="945" as="targetPoint" />
            <mxPoint x="-187" y="1325" as="sourcePoint" />
          </mxGeometry>
        </mxCell>
        <mxCell id="SJhPn0XpCKg0EyMPji_I-62" value="1" style="edgeLabel;html=1;align=center;verticalAlign=middle;resizable=0;points=[];fontSize=17;fontStyle=1" parent="SJhPn0XpCKg0EyMPji_I-57" vertex="1" connectable="0">
          <mxGeometry x="0.5894" relative="1" as="geometry">
            <mxPoint x="-1" y="3" as="offset" />
          </mxGeometry>
        </mxCell>
        <mxCell id="SJhPn0XpCKg0EyMPji_I-58" style="edgeStyle=orthogonalEdgeStyle;rounded=0;orthogonalLoop=1;jettySize=auto;html=1;exitX=1;exitY=0.5;exitDx=0;exitDy=0;endArrow=none;endFill=0;shape=link;entryX=0;entryY=0.5;entryDx=0;entryDy=0;" parent="1" source="eJS6RQ6NcchhUuec16Ap-18" target="eJS6RQ6NcchhUuec16Ap-15" edge="1">
          <mxGeometry relative="1" as="geometry">
            <mxPoint x="-137" y="1375" as="sourcePoint" />
          </mxGeometry>
        </mxCell>
        <mxCell id="SJhPn0XpCKg0EyMPji_I-61" value="N" style="edgeLabel;html=1;align=center;verticalAlign=middle;resizable=0;points=[];fontSize=17;fontStyle=1" parent="SJhPn0XpCKg0EyMPji_I-58" vertex="1" connectable="0">
          <mxGeometry x="0.557" y="1" relative="1" as="geometry">
            <mxPoint x="87" y="1" as="offset" />
          </mxGeometry>
        </mxCell>
        <mxCell id="SJhPn0XpCKg0EyMPji_I-69" style="edgeStyle=orthogonalEdgeStyle;rounded=0;orthogonalLoop=1;jettySize=auto;html=1;exitX=0;exitY=0.25;exitDx=0;exitDy=0;entryX=0.5;entryY=0;entryDx=0;entryDy=0;endArrow=none;endFill=0;" parent="1" source="SJhPn0XpCKg0EyMPji_I-64" target="SJhPn0XpCKg0EyMPji_I-67" edge="1">
          <mxGeometry relative="1" as="geometry" />
        </mxCell>
        <mxCell id="SJhPn0XpCKg0EyMPji_I-70" style="edgeStyle=orthogonalEdgeStyle;rounded=0;orthogonalLoop=1;jettySize=auto;html=1;exitX=0;exitY=0.75;exitDx=0;exitDy=0;endArrow=none;endFill=0;" parent="1" source="SJhPn0XpCKg0EyMPji_I-64" target="SJhPn0XpCKg0EyMPji_I-68" edge="1">
          <mxGeometry relative="1" as="geometry" />
        </mxCell>
        <mxCell id="SJhPn0XpCKg0EyMPji_I-64" value="" style="triangle;whiteSpace=wrap;html=1;rotation=-90;" parent="1" vertex="1">
          <mxGeometry x="395" y="1465" width="60" height="80" as="geometry" />
        </mxCell>
        <mxCell id="SJhPn0XpCKg0EyMPji_I-65" value="&lt;b&gt;ISA&lt;/b&gt;" style="text;html=1;align=center;verticalAlign=middle;whiteSpace=wrap;rounded=0;" parent="1" vertex="1">
          <mxGeometry x="395" y="1501" width="60" height="30" as="geometry" />
        </mxCell>
        <mxCell id="eJS6RQ6NcchhUuec16Ap-7" style="edgeStyle=orthogonalEdgeStyle;rounded=0;orthogonalLoop=1;jettySize=auto;html=1;exitX=0;exitY=0.5;exitDx=0;exitDy=0;entryX=0.5;entryY=0;entryDx=0;entryDy=0;" edge="1" parent="1" source="SJhPn0XpCKg0EyMPji_I-67" target="eJS6RQ6NcchhUuec16Ap-6">
          <mxGeometry relative="1" as="geometry" />
        </mxCell>
        <mxCell id="SJhPn0XpCKg0EyMPji_I-67" value="Diagnosis&lt;div&gt;Report&lt;/div&gt;" style="rounded=0;whiteSpace=wrap;html=1;shadow=0;fontStyle=1;fontSize=15;" parent="1" vertex="1">
          <mxGeometry x="210" y="1645" width="120" height="60" as="geometry" />
        </mxCell>
        <mxCell id="eJS6RQ6NcchhUuec16Ap-9" style="edgeStyle=orthogonalEdgeStyle;rounded=0;orthogonalLoop=1;jettySize=auto;html=1;exitX=1;exitY=0.5;exitDx=0;exitDy=0;" edge="1" parent="1" source="SJhPn0XpCKg0EyMPji_I-68" target="eJS6RQ6NcchhUuec16Ap-8">
          <mxGeometry relative="1" as="geometry" />
        </mxCell>
        <mxCell id="SJhPn0XpCKg0EyMPji_I-68" value="Prescription" style="rounded=0;whiteSpace=wrap;html=1;shadow=0;fontStyle=1;fontSize=15;" parent="1" vertex="1">
          <mxGeometry x="520" y="1645" width="120" height="60" as="geometry" />
        </mxCell>
        <mxCell id="VN0yVY5uS7CeXmlR8bmi-3" style="edgeStyle=orthogonalEdgeStyle;rounded=0;orthogonalLoop=1;jettySize=auto;html=1;exitX=1;exitY=0.5;exitDx=0;exitDy=0;entryX=0;entryY=0.5;entryDx=0;entryDy=0;endArrow=none;endFill=0;" parent="1" source="eJS6RQ6NcchhUuec16Ap-11" target="SJhPn0XpCKg0EyMPji_I-13" edge="1">
          <mxGeometry relative="1" as="geometry">
            <mxPoint x="760" y="874" as="sourcePoint" />
          </mxGeometry>
        </mxCell>
        <mxCell id="VN0yVY5uS7CeXmlR8bmi-11" value="1" style="edgeLabel;html=1;align=center;verticalAlign=middle;resizable=0;points=[];fontSize=17;fontStyle=1" parent="VN0yVY5uS7CeXmlR8bmi-3" vertex="1" connectable="0">
          <mxGeometry x="0.5913" y="2" relative="1" as="geometry">
            <mxPoint x="-1" y="3" as="offset" />
          </mxGeometry>
        </mxCell>
        <mxCell id="VN0yVY5uS7CeXmlR8bmi-4" style="edgeStyle=orthogonalEdgeStyle;rounded=0;orthogonalLoop=1;jettySize=auto;html=1;exitX=0;exitY=0.5;exitDx=0;exitDy=0;entryX=1;entryY=0.5;entryDx=0;entryDy=0;endArrow=none;endFill=0;shape=link;" parent="1" source="eJS6RQ6NcchhUuec16Ap-11" target="eJS6RQ6NcchhUuec16Ap-12" edge="1">
          <mxGeometry relative="1" as="geometry">
            <mxPoint x="660" y="874" as="sourcePoint" />
            <mxPoint x="485" y="874" as="targetPoint" />
          </mxGeometry>
        </mxCell>
        <mxCell id="VN0yVY5uS7CeXmlR8bmi-10" value="N" style="edgeLabel;html=1;align=center;verticalAlign=middle;resizable=0;points=[];fontSize=17;fontStyle=1" parent="VN0yVY5uS7CeXmlR8bmi-4" vertex="1" connectable="0">
          <mxGeometry x="0.7662" y="-1" relative="1" as="geometry">
            <mxPoint x="18" y="2" as="offset" />
          </mxGeometry>
        </mxCell>
        <mxCell id="VN0yVY5uS7CeXmlR8bmi-6" style="edgeStyle=orthogonalEdgeStyle;rounded=0;orthogonalLoop=1;jettySize=auto;html=1;exitX=0;exitY=0.5;exitDx=0;exitDy=0;endArrow=none;endFill=0;" parent="1" source="eJS6RQ6NcchhUuec16Ap-13" target="SJhPn0XpCKg0EyMPji_I-2" edge="1">
          <mxGeometry relative="1" as="geometry">
            <mxPoint x="101.99999999999977" y="874" as="sourcePoint" />
          </mxGeometry>
        </mxCell>
        <mxCell id="VN0yVY5uS7CeXmlR8bmi-8" value="1" style="edgeLabel;html=1;align=center;verticalAlign=middle;resizable=0;points=[];fontSize=17;fontStyle=1" parent="VN0yVY5uS7CeXmlR8bmi-6" vertex="1" connectable="0">
          <mxGeometry x="0.7058" relative="1" as="geometry">
            <mxPoint x="1" as="offset" />
          </mxGeometry>
        </mxCell>
        <mxCell id="VN0yVY5uS7CeXmlR8bmi-7" style="edgeStyle=orthogonalEdgeStyle;rounded=0;orthogonalLoop=1;jettySize=auto;html=1;exitX=1;exitY=0.5;exitDx=0;exitDy=0;entryX=0;entryY=0.5;entryDx=0;entryDy=0;endArrow=none;endFill=0;shape=link;" parent="1" source="eJS6RQ6NcchhUuec16Ap-13" target="eJS6RQ6NcchhUuec16Ap-12" edge="1">
          <mxGeometry relative="1" as="geometry">
            <mxPoint x="201.99999999999977" y="874" as="sourcePoint" />
            <mxPoint x="365" y="874" as="targetPoint" />
          </mxGeometry>
        </mxCell>
        <mxCell id="VN0yVY5uS7CeXmlR8bmi-9" value="N" style="edgeLabel;html=1;align=center;verticalAlign=middle;resizable=0;points=[];fontSize=17;fontStyle=1" parent="VN0yVY5uS7CeXmlR8bmi-7" vertex="1" connectable="0">
          <mxGeometry x="0.8286" relative="1" as="geometry">
            <mxPoint x="-24" y="1" as="offset" />
          </mxGeometry>
        </mxCell>
        <mxCell id="VN0yVY5uS7CeXmlR8bmi-18" style="edgeStyle=orthogonalEdgeStyle;rounded=0;orthogonalLoop=1;jettySize=auto;html=1;exitX=0;exitY=0.5;exitDx=0;exitDy=0;endArrow=none;endFill=0;" parent="1" source="VN0yVY5uS7CeXmlR8bmi-12" target="SJhPn0XpCKg0EyMPji_I-42" edge="1">
          <mxGeometry relative="1" as="geometry" />
        </mxCell>
        <mxCell id="VN0yVY5uS7CeXmlR8bmi-20" value="N" style="edgeLabel;html=1;align=center;verticalAlign=middle;resizable=0;points=[];fontSize=17;fontStyle=1" parent="VN0yVY5uS7CeXmlR8bmi-18" vertex="1" connectable="0">
          <mxGeometry x="0.7444" y="1" relative="1" as="geometry">
            <mxPoint x="23" as="offset" />
          </mxGeometry>
        </mxCell>
        <mxCell id="VN0yVY5uS7CeXmlR8bmi-12" value="Choose" style="rhombus;whiteSpace=wrap;html=1;shadow=0;fontStyle=1;fontSize=15;" parent="1" vertex="1">
          <mxGeometry x="700" y="382" width="100" height="100" as="geometry" />
        </mxCell>
        <mxCell id="VN0yVY5uS7CeXmlR8bmi-17" style="edgeStyle=orthogonalEdgeStyle;rounded=0;orthogonalLoop=1;jettySize=auto;html=1;exitX=0;exitY=0.5;exitDx=0;exitDy=0;endArrow=none;endFill=0;shape=link;entryX=1;entryY=0.5;entryDx=0;entryDy=0;" parent="1" source="eJS6RQ6NcchhUuec16Ap-17" target="eJS6RQ6NcchhUuec16Ap-14" edge="1">
          <mxGeometry relative="1" as="geometry">
            <mxPoint x="485" y="6" as="targetPoint" />
          </mxGeometry>
        </mxCell>
        <mxCell id="VN0yVY5uS7CeXmlR8bmi-22" value="N" style="edgeLabel;html=1;align=center;verticalAlign=middle;resizable=0;points=[];fontSize=17;fontStyle=1" parent="VN0yVY5uS7CeXmlR8bmi-17" vertex="1" connectable="0">
          <mxGeometry x="0.7734" y="1" relative="1" as="geometry">
            <mxPoint x="25" y="1" as="offset" />
          </mxGeometry>
        </mxCell>
        <mxCell id="VN0yVY5uS7CeXmlR8bmi-24" style="edgeStyle=orthogonalEdgeStyle;rounded=0;orthogonalLoop=1;jettySize=auto;html=1;exitX=0.5;exitY=1;exitDx=0;exitDy=0;endArrow=none;endFill=0;entryX=0.25;entryY=0;entryDx=0;entryDy=0;" parent="1" source="VN0yVY5uS7CeXmlR8bmi-23" target="eJS6RQ6NcchhUuec16Ap-15" edge="1">
          <mxGeometry relative="1" as="geometry">
            <mxPoint x="462" y="1314" as="targetPoint" />
          </mxGeometry>
        </mxCell>
        <mxCell id="VN0yVY5uS7CeXmlR8bmi-23" value="&lt;font style=&quot;font-size: 15px;&quot;&gt;&lt;b&gt;Date&lt;/b&gt;&lt;/font&gt;" style="ellipse;whiteSpace=wrap;html=1;" parent="1" vertex="1">
          <mxGeometry x="270" y="1225" width="120" height="80" as="geometry" />
        </mxCell>
        <mxCell id="eJS6RQ6NcchhUuec16Ap-2" value="&lt;font style=&quot;font-size: 15px;&quot;&gt;&lt;b&gt;&lt;u&gt;ReportID&lt;/u&gt;&lt;/b&gt;&lt;/font&gt;" style="ellipse;whiteSpace=wrap;html=1;" vertex="1" parent="1">
          <mxGeometry x="455" y="1225" width="120" height="80" as="geometry" />
        </mxCell>
        <mxCell id="eJS6RQ6NcchhUuec16Ap-6" value="&lt;font style=&quot;font-size: 15px;&quot;&gt;&lt;b&gt;ReportType&lt;/b&gt;&lt;/font&gt;" style="ellipse;whiteSpace=wrap;html=1;" vertex="1" parent="1">
          <mxGeometry x="40" y="1754" width="120" height="80" as="geometry" />
        </mxCell>
        <mxCell id="eJS6RQ6NcchhUuec16Ap-8" value="&lt;font style=&quot;font-size: 15px;&quot;&gt;&lt;b&gt;ReportType&lt;/b&gt;&lt;/font&gt;" style="ellipse;whiteSpace=wrap;html=1;" vertex="1" parent="1">
          <mxGeometry x="690" y="1754" width="120" height="80" as="geometry" />
        </mxCell>
        <mxCell id="eJS6RQ6NcchhUuec16Ap-11" value="&lt;font style=&quot;font-size: 15px;&quot;&gt;&lt;b&gt;Place&lt;/b&gt;&lt;/font&gt;" style="shape=rhombus;double=1;perimeter=rhombusPerimeter;whiteSpace=wrap;html=1;align=center;" vertex="1" parent="1">
          <mxGeometry x="710" y="820.75" width="100" height="106.5" as="geometry" />
        </mxCell>
        <mxCell id="eJS6RQ6NcchhUuec16Ap-56" style="edgeStyle=orthogonalEdgeStyle;rounded=0;orthogonalLoop=1;jettySize=auto;html=1;exitX=0.5;exitY=0;exitDx=0;exitDy=0;entryX=0.5;entryY=1;entryDx=0;entryDy=0;" edge="1" parent="1" source="eJS6RQ6NcchhUuec16Ap-12" target="eJS6RQ6NcchhUuec16Ap-55">
          <mxGeometry relative="1" as="geometry" />
        </mxCell>
        <mxCell id="eJS6RQ6NcchhUuec16Ap-12" value="&lt;b&gt;&lt;font style=&quot;font-size: 15px;&quot;&gt;Appointment&lt;/font&gt;&lt;/b&gt;" style="shape=ext;margin=3;double=1;whiteSpace=wrap;html=1;align=center;" vertex="1" parent="1">
          <mxGeometry x="365" y="844" width="120" height="60" as="geometry" />
        </mxCell>
        <mxCell id="eJS6RQ6NcchhUuec16Ap-13" value="&lt;font style=&quot;font-size: 15px;&quot;&gt;&lt;b&gt;View&lt;/b&gt;&lt;/font&gt;" style="shape=rhombus;double=1;perimeter=rhombusPerimeter;whiteSpace=wrap;html=1;align=center;" vertex="1" parent="1">
          <mxGeometry x="88" y="820.75" width="100" height="106.5" as="geometry" />
        </mxCell>
        <mxCell id="eJS6RQ6NcchhUuec16Ap-20" style="edgeStyle=orthogonalEdgeStyle;rounded=0;orthogonalLoop=1;jettySize=auto;html=1;exitX=0.5;exitY=0;exitDx=0;exitDy=0;entryX=0.5;entryY=1;entryDx=0;entryDy=0;endArrow=none;endFill=0;" edge="1" parent="1" source="eJS6RQ6NcchhUuec16Ap-14" target="eJS6RQ6NcchhUuec16Ap-19">
          <mxGeometry relative="1" as="geometry" />
        </mxCell>
        <mxCell id="eJS6RQ6NcchhUuec16Ap-22" style="edgeStyle=orthogonalEdgeStyle;rounded=0;orthogonalLoop=1;jettySize=auto;html=1;exitX=0.25;exitY=0;exitDx=0;exitDy=0;entryX=1;entryY=0.5;entryDx=0;entryDy=0;endArrow=none;endFill=0;" edge="1" parent="1" source="eJS6RQ6NcchhUuec16Ap-14" target="eJS6RQ6NcchhUuec16Ap-21">
          <mxGeometry relative="1" as="geometry" />
        </mxCell>
        <mxCell id="eJS6RQ6NcchhUuec16Ap-24" style="edgeStyle=orthogonalEdgeStyle;rounded=0;orthogonalLoop=1;jettySize=auto;html=1;exitX=0;exitY=0.5;exitDx=0;exitDy=0;entryX=1;entryY=0.5;entryDx=0;entryDy=0;endArrow=none;endFill=0;" edge="1" parent="1" source="eJS6RQ6NcchhUuec16Ap-14" target="eJS6RQ6NcchhUuec16Ap-23">
          <mxGeometry relative="1" as="geometry" />
        </mxCell>
        <mxCell id="eJS6RQ6NcchhUuec16Ap-27" style="edgeStyle=orthogonalEdgeStyle;rounded=0;orthogonalLoop=1;jettySize=auto;html=1;exitX=0.25;exitY=1;exitDx=0;exitDy=0;entryX=1;entryY=0.5;entryDx=0;entryDy=0;endArrow=none;endFill=0;" edge="1" parent="1" source="eJS6RQ6NcchhUuec16Ap-14" target="eJS6RQ6NcchhUuec16Ap-26">
          <mxGeometry relative="1" as="geometry" />
        </mxCell>
        <mxCell id="eJS6RQ6NcchhUuec16Ap-14" value="&lt;b&gt;&lt;font style=&quot;font-size: 15px;&quot;&gt;Bill&lt;/font&gt;&lt;/b&gt;" style="shape=ext;margin=3;double=1;whiteSpace=wrap;html=1;align=center;" vertex="1" parent="1">
          <mxGeometry x="365" y="-24" width="120" height="60" as="geometry" />
        </mxCell>
        <mxCell id="eJS6RQ6NcchhUuec16Ap-15" value="&lt;b&gt;&lt;font style=&quot;font-size: 15px;&quot;&gt;Report&lt;/font&gt;&lt;/b&gt;" style="shape=ext;margin=3;double=1;whiteSpace=wrap;html=1;align=center;" vertex="1" parent="1">
          <mxGeometry x="365" y="1345" width="120" height="60" as="geometry" />
        </mxCell>
        <mxCell id="eJS6RQ6NcchhUuec16Ap-16" value="&lt;font style=&quot;font-size: 15px;&quot;&gt;&lt;b&gt;View&lt;/b&gt;&lt;/font&gt;" style="shape=rhombus;double=1;perimeter=rhombusPerimeter;whiteSpace=wrap;html=1;align=center;" vertex="1" parent="1">
          <mxGeometry x="1033" y="1321.75" width="100" height="106.5" as="geometry" />
        </mxCell>
        <mxCell id="eJS6RQ6NcchhUuec16Ap-17" value="&lt;span style=&quot;font-size: 15px;&quot;&gt;&lt;b&gt;Pays&lt;/b&gt;&lt;/span&gt;" style="shape=rhombus;double=1;perimeter=rhombusPerimeter;whiteSpace=wrap;html=1;align=center;" vertex="1" parent="1">
          <mxGeometry x="660" y="-47.25" width="100" height="106.5" as="geometry" />
        </mxCell>
        <mxCell id="eJS6RQ6NcchhUuec16Ap-18" value="&lt;font style=&quot;font-size: 15px;&quot;&gt;&lt;b&gt;Update&lt;/b&gt;&lt;/font&gt;" style="shape=rhombus;double=1;perimeter=rhombusPerimeter;whiteSpace=wrap;html=1;align=center;" vertex="1" parent="1">
          <mxGeometry x="-237" y="1321.75" width="100" height="106.5" as="geometry" />
        </mxCell>
        <mxCell id="eJS6RQ6NcchhUuec16Ap-19" value="&lt;font style=&quot;font-size: 15px;&quot;&gt;&lt;b&gt;&lt;u&gt;Bill_Number&lt;/u&gt;&lt;/b&gt;&lt;/font&gt;" style="ellipse;whiteSpace=wrap;html=1;" vertex="1" parent="1">
          <mxGeometry x="365" y="-198" width="120" height="80" as="geometry" />
        </mxCell>
        <mxCell id="eJS6RQ6NcchhUuec16Ap-21" value="&lt;font style=&quot;font-size: 15px;&quot;&gt;&lt;b&gt;Date&lt;/b&gt;&lt;/font&gt;" style="ellipse;whiteSpace=wrap;html=1;" vertex="1" parent="1">
          <mxGeometry x="210" y="-138" width="120" height="80" as="geometry" />
        </mxCell>
        <mxCell id="eJS6RQ6NcchhUuec16Ap-23" value="&lt;font style=&quot;font-size: 15px;&quot;&gt;&lt;b&gt;Amount&lt;/b&gt;&lt;/font&gt;" style="ellipse;whiteSpace=wrap;html=1;" vertex="1" parent="1">
          <mxGeometry x="150" y="-34" width="120" height="80" as="geometry" />
        </mxCell>
        <mxCell id="eJS6RQ6NcchhUuec16Ap-26" value="&lt;b style=&quot;font-size: 15px;&quot;&gt;Payment_Type&lt;/b&gt;" style="ellipse;shape=doubleEllipse;margin=3;whiteSpace=wrap;html=1;align=center;" vertex="1" parent="1">
          <mxGeometry x="220" y="82" width="130" height="80" as="geometry" />
        </mxCell>
        <mxCell id="eJS6RQ6NcchhUuec16Ap-28" value="&lt;font style=&quot;font-size: 15px;&quot;&gt;&lt;b&gt;&lt;u&gt;Room_Number&lt;/u&gt;&lt;/b&gt;&lt;/font&gt;" style="ellipse;whiteSpace=wrap;html=1;" vertex="1" parent="1">
          <mxGeometry x="365" y="240" width="120" height="80" as="geometry" />
        </mxCell>
        <mxCell id="eJS6RQ6NcchhUuec16Ap-30" value="&lt;span style=&quot;font-size: 15px;&quot;&gt;&lt;b&gt;&lt;u&gt;Type Name&lt;/u&gt;&lt;/b&gt;&lt;/span&gt;" style="ellipse;whiteSpace=wrap;html=1;" vertex="1" parent="1">
          <mxGeometry x="-247" y="240" width="120" height="80" as="geometry" />
        </mxCell>
        <mxCell id="eJS6RQ6NcchhUuec16Ap-33" style="edgeStyle=orthogonalEdgeStyle;rounded=0;orthogonalLoop=1;jettySize=auto;html=1;exitX=0.5;exitY=0;exitDx=0;exitDy=0;entryX=0.5;entryY=1;entryDx=0;entryDy=0;endArrow=none;endFill=0;" edge="1" parent="1" source="eJS6RQ6NcchhUuec16Ap-31" target="eJS6RQ6NcchhUuec16Ap-30">
          <mxGeometry relative="1" as="geometry" />
        </mxCell>
        <mxCell id="eJS6RQ6NcchhUuec16Ap-35" style="edgeStyle=orthogonalEdgeStyle;rounded=0;orthogonalLoop=1;jettySize=auto;html=1;exitX=0.25;exitY=0;exitDx=0;exitDy=0;entryX=1;entryY=0.5;entryDx=0;entryDy=0;endArrow=none;endFill=0;" edge="1" parent="1" source="eJS6RQ6NcchhUuec16Ap-31" target="eJS6RQ6NcchhUuec16Ap-34">
          <mxGeometry relative="1" as="geometry" />
        </mxCell>
        <mxCell id="eJS6RQ6NcchhUuec16Ap-31" value="Room_Type" style="rounded=0;whiteSpace=wrap;html=1;shadow=0;fontStyle=1;fontSize=15;" vertex="1" parent="1">
          <mxGeometry x="-247" y="402" width="120" height="60" as="geometry" />
        </mxCell>
        <mxCell id="eJS6RQ6NcchhUuec16Ap-34" value="&lt;font style=&quot;font-size: 15px;&quot;&gt;&lt;b&gt;Charge&lt;/b&gt;&lt;/font&gt;&lt;div&gt;&lt;font style=&quot;font-size: 15px;&quot;&gt;&lt;b&gt;_for_&lt;/b&gt;&lt;/font&gt;&lt;/div&gt;&lt;div&gt;&lt;font style=&quot;font-size: 15px;&quot;&gt;&lt;b&gt;One_Day&lt;/b&gt;&lt;/font&gt;&lt;/div&gt;" style="ellipse;whiteSpace=wrap;html=1;" vertex="1" parent="1">
          <mxGeometry x="-400" y="302" width="120" height="80" as="geometry" />
        </mxCell>
        <mxCell id="eJS6RQ6NcchhUuec16Ap-37" style="edgeStyle=orthogonalEdgeStyle;rounded=0;orthogonalLoop=1;jettySize=auto;html=1;exitX=1;exitY=0.5;exitDx=0;exitDy=0;entryX=0;entryY=0.5;entryDx=0;entryDy=0;endArrow=none;endFill=0;shape=link;" edge="1" parent="1" source="eJS6RQ6NcchhUuec16Ap-36" target="SJhPn0XpCKg0EyMPji_I-42">
          <mxGeometry relative="1" as="geometry" />
        </mxCell>
        <mxCell id="eJS6RQ6NcchhUuec16Ap-38" style="edgeStyle=orthogonalEdgeStyle;rounded=0;orthogonalLoop=1;jettySize=auto;html=1;exitX=0;exitY=0.5;exitDx=0;exitDy=0;endArrow=none;endFill=0;" edge="1" parent="1" source="eJS6RQ6NcchhUuec16Ap-36" target="eJS6RQ6NcchhUuec16Ap-31">
          <mxGeometry relative="1" as="geometry" />
        </mxCell>
        <mxCell id="eJS6RQ6NcchhUuec16Ap-36" value="&lt;font style=&quot;font-size: 15px;&quot;&gt;&lt;b&gt;Has&lt;/b&gt;&lt;/font&gt;" style="shape=rhombus;double=1;perimeter=rhombusPerimeter;whiteSpace=wrap;html=1;align=center;" vertex="1" parent="1">
          <mxGeometry x="88" y="378.75" width="100" height="106.5" as="geometry" />
        </mxCell>
        <mxCell id="eJS6RQ6NcchhUuec16Ap-39" value="&lt;font style=&quot;font-size: 15px;&quot;&gt;&lt;b&gt;Availability&lt;/b&gt;&lt;/font&gt;" style="ellipse;whiteSpace=wrap;html=1;" vertex="1" parent="1">
          <mxGeometry x="520" y="485.25" width="120" height="80" as="geometry" />
        </mxCell>
        <mxCell id="eJS6RQ6NcchhUuec16Ap-43" value="&lt;font style=&quot;font-size: 15px;&quot;&gt;&lt;b&gt;&lt;u&gt;Patient_ID&lt;/u&gt;&lt;/b&gt;&lt;/font&gt;" style="ellipse;whiteSpace=wrap;html=1;" vertex="1" parent="1">
          <mxGeometry x="1200" y="655" width="120" height="80" as="geometry" />
        </mxCell>
        <mxCell id="eJS6RQ6NcchhUuec16Ap-44" value="&lt;font style=&quot;font-size: 15px;&quot;&gt;&lt;b&gt;Full_Name&lt;/b&gt;&lt;/font&gt;" style="ellipse;whiteSpace=wrap;html=1;" vertex="1" parent="1">
          <mxGeometry x="1275" y="735" width="120" height="80" as="geometry" />
        </mxCell>
        <mxCell id="eJS6RQ6NcchhUuec16Ap-47" value="&lt;font style=&quot;font-size: 15px;&quot;&gt;&lt;b&gt;DOB&lt;/b&gt;&lt;/font&gt;" style="ellipse;whiteSpace=wrap;html=1;" vertex="1" parent="1">
          <mxGeometry x="1290" y="834" width="120" height="80" as="geometry" />
        </mxCell>
        <mxCell id="eJS6RQ6NcchhUuec16Ap-49" value="&lt;font style=&quot;font-size: 15px;&quot;&gt;&lt;b&gt;Address&lt;/b&gt;&lt;/font&gt;" style="ellipse;whiteSpace=wrap;html=1;" vertex="1" parent="1">
          <mxGeometry x="1270" y="927.25" width="120" height="80" as="geometry" />
        </mxCell>
        <mxCell id="eJS6RQ6NcchhUuec16Ap-51" value="&lt;font style=&quot;font-size: 15px;&quot;&gt;&lt;b&gt;Telephone&lt;/b&gt;&lt;/font&gt;" style="ellipse;whiteSpace=wrap;html=1;" vertex="1" parent="1">
          <mxGeometry x="1170" y="1007.25" width="120" height="80" as="geometry" />
        </mxCell>
        <mxCell id="eJS6RQ6NcchhUuec16Ap-55" value="&lt;font style=&quot;font-size: 15px;&quot;&gt;&lt;b&gt;Appointment&lt;/b&gt;&lt;/font&gt;&lt;div&gt;&lt;font style=&quot;font-size: 15px;&quot;&gt;&lt;b&gt;_ID&lt;/b&gt;&lt;/font&gt;&lt;/div&gt;" style="ellipse;whiteSpace=wrap;html=1;" vertex="1" parent="1">
          <mxGeometry x="365" y="670" width="120" height="80" as="geometry" />
        </mxCell>
      </root>
    </mxGraphModel>
  </diagram>
</mxfile>
